<svg version="1.2" xmlns="http://www.w3.org/2000/svg" viewBox="0 0 800 800" width="800" height="800">
	<title>New Project</title>
	<style>
		.s0 { fill: #000000 } 
		.s1 { fill: #f4442e } 
	</style>
	<path id="Background" class="s0" d="m-30 309c-0.6 0-1-0.2-1-0.5 0-0.3 0.4-0.5 1-0.5 0.6 0 1 0.2 1 0.5 0 0.3-0.4 0.5-1 0.5z"/>
	<path id="Shape 1" fill-rule="evenodd" class="s0" d="m400 650c-138.3 0-250-111.8-250-250 0-13.8 11.2-25 25-25 13.8 0 25 11.2 25 25 0 110.6 89.4 200 200 200 110.6 0 200-89.4 200-200 0-13.8 11.2-25 25-25 13.8 0 25 11.2 25 25 0 138.3-111.8 250-250 250z"/>
	<path id="Shape 2" class="s0" d="m375 622h50v100h-50zm25 123c-13.8 0-25-11.2-25-25 0-13.8 11.2-25 25-25 13.8 0 25 11.2 25 25 0 13.8-11.2 25-25 25z"/>
	<path id="Shape 2 copy 2" class="s0" d="m400 732.8l8.7-49.2 98.5 17.3-8.7 49.3zm125.5-3.3c-2.4 13.6-15.4 22.7-29 20.3-13.6-2.4-22.7-15.4-20.3-29 2.4-13.6 15.4-22.6 29-20.2 13.6 2.4 22.7 15.3 20.3 28.9z"/>
	<path id="Shape 2 copy" class="s0" d="m393.3 683l8.7 49.2-98.5 17.4-8.7-49.2zm-116.8 45.9c-2.4-13.6 6.7-26.5 20.3-28.9 13.6-2.4 26.6 6.6 29 20.3 2.4 13.6-6.7 26.5-20.3 28.9-13.6 2.4-26.6-6.6-29-20.3z"/>
	<path id="Shape 3" fill-rule="evenodd" class="s0" d="m400 473c67.5 0 122.3 31.9 124.9 72h-18.1c-21.9-21.6-61.5-36-106.8-36-45.3 0-84.9 14.4-106.8 36h-18.1c2.6-40.1 57.4-72 124.9-72zm-0.5 65c33.7 0 61.1 16 62.5 36h-9.1c-10.9-10.8-30.7-18-53.4-18-22.7 0-42.5 7.2-53.4 18h-9.1c1.4-20 28.8-36 62.5-36z"/>
	<path id="Shape 3 copy" class="s1" d="m190.7 346.1c-6.4-12.3-1.7-27.4 10.5-33.8 12.2-6.4 27.3-1.8 33.8 10.5 6.4 12.2 1.7 27.3-10.5 33.7-12.2 6.5-27.3 1.8-33.8-10.4zm63.9 121.2c-6.5-12.3-1.8-27.4 10.4-33.8 12.3-6.4 27.4-1.8 33.8 10.5 6.5 12.2 1.8 27.3-10.4 33.7-12.3 6.5-27.4 1.8-33.8-10.4zm-20.6-146.3l65.3 123.9-44.3 23.3-65.2-123.9zm78.7-119.9c-6.5-12.3-1.8-27.4 10.4-33.8 12.3-6.4 27.4-1.8 33.8 10.5 6.5 12.2 1.8 27.3-10.4 33.7-12.3 6.5-27.4 1.8-33.8-10.4zm63.8 121.2c-6.4-12.2-1.7-27.3 10.5-33.8 12.2-6.4 27.3-1.8 33.8 10.5 6.4 12.2 1.7 27.3-10.5 33.7-12.2 6.5-27.3 1.8-33.8-10.4zm-20.5-146.3l65.2 123.9-44.2 23.3-65.2-123.9zm-74.4 140.7c2.9-13.5 16.2-22.1 29.7-19.1 13.6 2.9 22.1 16.2 19.2 29.7-2.9 13.5-16.2 22.1-29.7 19.1-13.5-2.9-22.1-16.2-19.2-29.7zm-29 133.9c3-13.5 16.2-22.1 29.8-19.1 13.5 2.9 22 16.2 19.1 29.7-2.9 13.5-16.2 22.1-29.7 19.1-13.5-2.9-22.1-16.2-19.2-29.7zm78.3-125.3l-29.6 136.9-48.9-10.6 29.6-136.8zm-20.2-141.7c2.9-13.5 16.2-22 29.7-19.1 13.5 2.9 22 16.2 19.1 29.7-2.9 13.5-16.2 22.1-29.7 19.1-13.5-2.9-22.1-16.2-19.1-29.7zm-29 133.9c2.9-13.5 16.2-22 29.7-19.1 13.5 2.9 22.1 16.2 19.1 29.7-2.9 13.5-16.2 22.1-29.7 19.1-13.5-2.9-22.1-16.2-19.1-29.7zm78.2-125.2l-29.6 136.8-48.9-10.6 29.7-136.8zm-204 117.7h56v50h-56zm244-24h28v50h-28zm-241 74c-13.8 0-25-11.2-25-25 0-13.9 11.2-25 25-25 13.8 0 25 11.1 25 25 0 13.8-11.2 25-25 25zm266-24c-13.8 0-25-11.2-25-25 0-13.9 11.2-25 25-25 13.8 0 25 11.1 25 25 0 13.8-11.2 25-25 25z"/>
	<path id="Sf" fill-rule="evenodd" class="s1" d="m500.1 399.5q-15.1 0-28.1-5.7-12.9-5.8-20.9-17.1-7.9-11.5-7.9-28.3 0-1.4 0-2.9 0.2-1.4 0.2-2.4h32q0 0.3-0.3 1.7 0 1.2 0 2.2 0 11.7 7 18.9 7 7.2 19.4 7.2 14 0 19.5-6 5.5-6.2 5.5-13.4 0-8.4-4.3-13.4-4.4-5.1-11.6-8.2-6.9-3.4-15.6-6-8.4-2.6-17-6-8.6-3.4-15.8-8.6-7-5.6-11.3-14.2-4.3-8.6-4.3-22.1-0.1-15.6 7.6-25.7 7.7-10.3 20.2-15.3 12.7-5.1 27.3-5.1 14.4 0 26.4 5.1 12.3 5 19.5 15.8 7.4 10.6 7.4 27.6v2.9h-31.4v-2.2q0-10.5-6-16.5-5.8-6.3-16.3-6.3-11.1 0-17.1 5.1-6 4.8-6 12.5 0 7.2 4.4 11.5 4.3 4.3 11.2 7.2 7.2 2.9 15.9 5.5 8.6 2.4 17 5.8 8.7 3.3 15.6 8.8 7.2 5.3 11.5 13.9 4.4 8.4 4.4 21.4 0 19-7.5 30.5-7.4 11.3-20.6 16.6-13 5.2-30 5.2zm82.1-2.9v-102h-12.8v-24.2h12.8l-0.1-15.4q0-8.4 2.7-16 2.6-8 9.1-12.8 6.5-5 18-5 5 0 11 1 6.3 0.7 9.9 1.9v21.3h-11.8q-10.1 0-10.1 10.4l0.1 14.6h21.8v24.2h-21.8v80.5c-7.9 2.9-13.7 11.4-14 21.5z"/>
</svg>